# xmcd
#
# Track frame offsets:
#	150
#	24318
#	43956
#	67948
#	94101
#	116595
#	128920
#	151482
#	170663
#	185928
#	208701
#	228593
#	250791
#	272643
#	288597
#	306488
#	327319
#
# Disc length: 4665 seconds
#
# Revision: 0
# Processed by: cddbd v1.5.2PL0 Copyright (c) Steve Scherf et al.
# Submitted via: EasyCDDAExtractor 10.5.1.1
#
DISCID=03123711
DTITLE=Arsenik - Le Meilleur De L´Ärsenik
DYEAR=2007
DGENRE=Rap Français
TTITLE0=L´Enfer Remonte À La Surface (Remasterisé)
TTITLE1=Boxe Avec Les Mots
TTITLE2=Sexe, Pouvoir and Biftons
TTITLE3=Partout La Même (f. Neg´Marrons)
TTITLE4=Affaires De Famille (f. Doc Gynéco)
TTITLE5=Ils M´Appellent
TTITLE6=Regarde Le Monde
TTITLE7=Monsieur Qui
TTITLE8=Paradis Assassiné
TTITLE9=Shaolin - 6ème Chaudron (Remix) (f. Rza)
TTITLE10=Première Catégorie (f. Calbo et Booba)
TTITLE11=Paradis Airlines
TTITLE12=Poison (Lil´masterhelvetiktouchremix)
TTITLE13=Balltrap 2 (f. T.Killah)
TTITLE14=Atmosphère Suspecte (f. Don Choa and Le Rat Luciano (La Fonky Family))
TTITLE15=L´Art De La Guerre (f. Akhénaton and Pit Baccardi)
TTITLE16=Rimes Et Châtiments
EXTD=
EXTT0=
EXTT1=
EXTT2=
EXTT3=
EXTT4=
EXTT5=
EXTT6=
EXTT7=
EXTT8=
EXTT9=
EXTT10=
EXTT11=
EXTT12=
EXTT13=
EXTT14=
EXTT15=
EXTT16=
PLAYORDER=
